<?xml version="1.0" encoding="UTF-8" standalone="no"?>
<!DOCTYPE svg PUBLIC "-//W3C//DTD SVG 1.1//EN"
 "http://www.w3.org/Graphics/SVG/1.1/DTD/svg11.dtd">
<!-- Generated by graphviz version 2.38.0 (20140413.2041)
 -->
<!-- Title: deploy_net Pages: 1 -->
<svg width="9217pt" height="100pt"
 viewBox="0.00 0.00 9217.00 100.00" xmlns="http://www.w3.org/2000/svg" xmlns:xlink="http://www.w3.org/1999/xlink">
<g id="graph0" class="graph" transform="scale(1 1) rotate(0) translate(4 96)">
<title>deploy_net</title>
<polygon fill="white" stroke="none" points="-4,4 -4,-96 9213,-96 9213,4 -4,4"/>
<!-- Conv (op#0) -->
<g id="node1" class="node"><title>Conv (op#0)</title>
<polygon fill="#0f9d58" stroke="#0f9d58" points="86,-61 0,-61 0,-25 86,-25 86,-61"/>
<text text-anchor="middle" x="43" y="-39.3" font-family="Times,serif" font-size="14.00" fill="#ffffff">Conv (op#0)</text>
</g>
<!-- SpatialBN (op#1) -->
<g id="node2" class="node"><title>SpatialBN (op#1)</title>
<polygon fill="#0f9d58" stroke="#0f9d58" points="235,-84 122,-84 122,-48 235,-48 235,-84"/>
<text text-anchor="middle" x="178.5" y="-62.3" font-family="Times,serif" font-size="14.00" fill="#ffffff">SpatialBN (op#1)</text>
</g>
<!-- Conv (op#0)&#45;&gt;SpatialBN (op#1) -->
<g id="edge1" class="edge"><title>Conv (op#0)&#45;&gt;SpatialBN (op#1)</title>
<path fill="none" stroke="black" d="M86.2402,-50.2773C94.3661,-51.6773 103.055,-53.1742 111.722,-54.6674"/>
<polygon fill="black" stroke="black" points="111.402,-58.1637 121.851,-56.4125 112.59,-51.2654 111.402,-58.1637"/>
</g>
<!-- Sum (op#7) -->
<g id="node8" class="node"><title>Sum (op#7)</title>
<polygon fill="#0f9d58" stroke="#0f9d58" points="982,-61 900,-61 900,-25 982,-25 982,-61"/>
<text text-anchor="middle" x="941" y="-39.3" font-family="Times,serif" font-size="14.00" fill="#ffffff">Sum (op#7)</text>
</g>
<!-- Conv (op#0)&#45;&gt;Sum (op#7) -->
<g id="edge7" class="edge"><title>Conv (op#0)&#45;&gt;Sum (op#7)</title>
<path fill="none" stroke="black" d="M86.4462,-37.0769C139.037,-30.2622 231.441,-20 311,-20 311,-20 311,-20 702,-20 766.973,-20 841.462,-28.5973 889.544,-35.2794"/>
<polygon fill="black" stroke="black" points="889.296,-38.779 899.688,-36.7151 890.277,-31.8481 889.296,-38.779"/>
</g>
<!-- Relu (op#2) -->
<g id="node3" class="node"><title>Relu (op#2)</title>
<polygon fill="#0f9d58" stroke="#0f9d58" points="353,-84 271,-84 271,-48 353,-48 353,-84"/>
<text text-anchor="middle" x="312" y="-62.3" font-family="Times,serif" font-size="14.00" fill="#ffffff">Relu (op#2)</text>
</g>
<!-- SpatialBN (op#1)&#45;&gt;Relu (op#2) -->
<g id="edge2" class="edge"><title>SpatialBN (op#1)&#45;&gt;Relu (op#2)</title>
<path fill="none" stroke="black" d="M235.268,-66C243.635,-66 252.223,-66 260.473,-66"/>
<polygon fill="black" stroke="black" points="260.7,-69.5001 270.7,-66 260.7,-62.5001 260.7,-69.5001"/>
</g>
<!-- Conv (op#3) -->
<g id="node4" class="node"><title>Conv (op#3)</title>
<polygon fill="#0f9d58" stroke="#0f9d58" points="475,-84 389,-84 389,-48 475,-48 475,-84"/>
<text text-anchor="middle" x="432" y="-62.3" font-family="Times,serif" font-size="14.00" fill="#ffffff">Conv (op#3)</text>
</g>
<!-- Relu (op#2)&#45;&gt;Conv (op#3) -->
<g id="edge3" class="edge"><title>Relu (op#2)&#45;&gt;Conv (op#3)</title>
<path fill="none" stroke="black" d="M353.279,-66C361.443,-66 370.141,-66 378.651,-66"/>
<polygon fill="black" stroke="black" points="378.891,-69.5001 388.891,-66 378.891,-62.5001 378.891,-69.5001"/>
</g>
<!-- SpatialBN (op#4) -->
<g id="node5" class="node"><title>SpatialBN (op#4)</title>
<polygon fill="#0f9d58" stroke="#0f9d58" points="624,-84 511,-84 511,-48 624,-48 624,-84"/>
<text text-anchor="middle" x="567.5" y="-62.3" font-family="Times,serif" font-size="14.00" fill="#ffffff">SpatialBN (op#4)</text>
</g>
<!-- Conv (op#3)&#45;&gt;SpatialBN (op#4) -->
<g id="edge4" class="edge"><title>Conv (op#3)&#45;&gt;SpatialBN (op#4)</title>
<path fill="none" stroke="black" d="M475.24,-66C483.366,-66 492.055,-66 500.722,-66"/>
<polygon fill="black" stroke="black" points="500.851,-69.5001 510.851,-66 500.851,-62.5001 500.851,-69.5001"/>
</g>
<!-- Relu (op#5) -->
<g id="node6" class="node"><title>Relu (op#5)</title>
<polygon fill="#0f9d58" stroke="#0f9d58" points="742,-84 660,-84 660,-48 742,-48 742,-84"/>
<text text-anchor="middle" x="701" y="-62.3" font-family="Times,serif" font-size="14.00" fill="#ffffff">Relu (op#5)</text>
</g>
<!-- SpatialBN (op#4)&#45;&gt;Relu (op#5) -->
<g id="edge5" class="edge"><title>SpatialBN (op#4)&#45;&gt;Relu (op#5)</title>
<path fill="none" stroke="black" d="M624.268,-66C632.635,-66 641.223,-66 649.473,-66"/>
<polygon fill="black" stroke="black" points="649.7,-69.5001 659.7,-66 649.7,-62.5001 649.7,-69.5001"/>
</g>
<!-- Conv (op#6) -->
<g id="node7" class="node"><title>Conv (op#6)</title>
<polygon fill="#0f9d58" stroke="#0f9d58" points="864,-84 778,-84 778,-48 864,-48 864,-84"/>
<text text-anchor="middle" x="821" y="-62.3" font-family="Times,serif" font-size="14.00" fill="#ffffff">Conv (op#6)</text>
</g>
<!-- Relu (op#5)&#45;&gt;Conv (op#6) -->
<g id="edge6" class="edge"><title>Relu (op#5)&#45;&gt;Conv (op#6)</title>
<path fill="none" stroke="black" d="M742.279,-66C750.443,-66 759.141,-66 767.651,-66"/>
<polygon fill="black" stroke="black" points="767.891,-69.5001 777.891,-66 767.891,-62.5001 767.891,-69.5001"/>
</g>
<!-- Conv (op#6)&#45;&gt;Sum (op#7) -->
<g id="edge8" class="edge"><title>Conv (op#6)&#45;&gt;Sum (op#7)</title>
<path fill="none" stroke="black" d="M864.267,-57.7614C872.633,-56.1309 881.488,-54.4049 890.079,-52.7303"/>
<polygon fill="black" stroke="black" points="890.853,-56.1454 899.999,-50.7968 889.514,-49.2747 890.853,-56.1454"/>
</g>
<!-- SpatialBN (op#8) -->
<g id="node9" class="node"><title>SpatialBN (op#8)</title>
<polygon fill="#0f9d58" stroke="#0f9d58" points="1131,-84 1018,-84 1018,-48 1131,-48 1131,-84"/>
<text text-anchor="middle" x="1074.5" y="-62.3" font-family="Times,serif" font-size="14.00" fill="#ffffff">SpatialBN (op#8)</text>
</g>
<!-- Sum (op#7)&#45;&gt;SpatialBN (op#8) -->
<g id="edge9" class="edge"><title>Sum (op#7)&#45;&gt;SpatialBN (op#8)</title>
<path fill="none" stroke="black" d="M982.169,-50.0257C990.203,-51.431 998.842,-52.9419 1007.49,-54.4539"/>
<polygon fill="black" stroke="black" points="1007.15,-57.9477 1017.6,-56.223 1008.35,-51.0524 1007.15,-57.9477"/>
</g>
<!-- Sum (op#14) -->
<g id="node15" class="node"><title>Sum (op#14)</title>
<polygon fill="#0f9d58" stroke="#0f9d58" points="1910,-61 1821,-61 1821,-25 1910,-25 1910,-61"/>
<text text-anchor="middle" x="1865.5" y="-39.3" font-family="Times,serif" font-size="14.00" fill="#ffffff">Sum (op#14)</text>
</g>
<!-- Sum (op#7)&#45;&gt;Sum (op#14) -->
<g id="edge15" class="edge"><title>Sum (op#7)&#45;&gt;Sum (op#14)</title>
<path fill="none" stroke="black" d="M982.312,-37.3146C1034.18,-30.5036 1127.11,-20 1207,-20 1207,-20 1207,-20 1613.5,-20 1681.66,-20 1759.8,-28.5154 1810.55,-35.1835"/>
<polygon fill="black" stroke="black" points="1810.25,-38.6757 1820.63,-36.532 1811.18,-31.7375 1810.25,-38.6757"/>
</g>
<!-- Relu (op#9) -->
<g id="node10" class="node"><title>Relu (op#9)</title>
<polygon fill="#0f9d58" stroke="#0f9d58" points="1249,-84 1167,-84 1167,-48 1249,-48 1249,-84"/>
<text text-anchor="middle" x="1208" y="-62.3" font-family="Times,serif" font-size="14.00" fill="#ffffff">Relu (op#9)</text>
</g>
<!-- SpatialBN (op#8)&#45;&gt;Relu (op#9) -->
<g id="edge10" class="edge"><title>SpatialBN (op#8)&#45;&gt;Relu (op#9)</title>
<path fill="none" stroke="black" d="M1131.27,-66C1139.64,-66 1148.22,-66 1156.47,-66"/>
<polygon fill="black" stroke="black" points="1156.7,-69.5001 1166.7,-66 1156.7,-62.5001 1156.7,-69.5001"/>
</g>
<!-- Conv (op#10) -->
<g id="node11" class="node"><title>Conv (op#10)</title>
<polygon fill="#0f9d58" stroke="#0f9d58" points="1377,-84 1285,-84 1285,-48 1377,-48 1377,-84"/>
<text text-anchor="middle" x="1331" y="-62.3" font-family="Times,serif" font-size="14.00" fill="#ffffff">Conv (op#10)</text>
</g>
<!-- Relu (op#9)&#45;&gt;Conv (op#10) -->
<g id="edge11" class="edge"><title>Relu (op#9)&#45;&gt;Conv (op#10)</title>
<path fill="none" stroke="black" d="M1249.29,-66C1257.49,-66 1266.26,-66 1274.87,-66"/>
<polygon fill="black" stroke="black" points="1274.88,-69.5001 1284.88,-66 1274.88,-62.5001 1274.88,-69.5001"/>
</g>
<!-- SpatialBN (op#11) -->
<g id="node12" class="node"><title>SpatialBN (op#11)</title>
<polygon fill="#0f9d58" stroke="#0f9d58" points="1532,-84 1413,-84 1413,-48 1532,-48 1532,-84"/>
<text text-anchor="middle" x="1472.5" y="-62.3" font-family="Times,serif" font-size="14.00" fill="#ffffff">SpatialBN (op#11)</text>
</g>
<!-- Conv (op#10)&#45;&gt;SpatialBN (op#11) -->
<g id="edge12" class="edge"><title>Conv (op#10)&#45;&gt;SpatialBN (op#11)</title>
<path fill="none" stroke="black" d="M1377.29,-66C1385.47,-66 1394.16,-66 1402.83,-66"/>
<polygon fill="black" stroke="black" points="1402.96,-69.5001 1412.96,-66 1402.96,-62.5001 1402.96,-69.5001"/>
</g>
<!-- Relu (op#12) -->
<g id="node13" class="node"><title>Relu (op#12)</title>
<polygon fill="#0f9d58" stroke="#0f9d58" points="1657,-84 1568,-84 1568,-48 1657,-48 1657,-84"/>
<text text-anchor="middle" x="1612.5" y="-62.3" font-family="Times,serif" font-size="14.00" fill="#ffffff">Relu (op#12)</text>
</g>
<!-- SpatialBN (op#11)&#45;&gt;Relu (op#12) -->
<g id="edge13" class="edge"><title>SpatialBN (op#11)&#45;&gt;Relu (op#12)</title>
<path fill="none" stroke="black" d="M1532.02,-66C1540.59,-66 1549.38,-66 1557.84,-66"/>
<polygon fill="black" stroke="black" points="1557.96,-69.5001 1567.96,-66 1557.96,-62.5001 1557.96,-69.5001"/>
</g>
<!-- Conv (op#13) -->
<g id="node14" class="node"><title>Conv (op#13)</title>
<polygon fill="#0f9d58" stroke="#0f9d58" points="1785,-84 1693,-84 1693,-48 1785,-48 1785,-84"/>
<text text-anchor="middle" x="1739" y="-62.3" font-family="Times,serif" font-size="14.00" fill="#ffffff">Conv (op#13)</text>
</g>
<!-- Relu (op#12)&#45;&gt;Conv (op#13) -->
<g id="edge14" class="edge"><title>Relu (op#12)&#45;&gt;Conv (op#13)</title>
<path fill="none" stroke="black" d="M1657.04,-66C1665.22,-66 1673.87,-66 1682.35,-66"/>
<polygon fill="black" stroke="black" points="1682.58,-69.5001 1692.58,-66 1682.58,-62.5001 1682.58,-69.5001"/>
</g>
<!-- Conv (op#13)&#45;&gt;Sum (op#14) -->
<g id="edge16" class="edge"><title>Conv (op#13)&#45;&gt;Sum (op#14)</title>
<path fill="none" stroke="black" d="M1785.3,-57.6314C1793.59,-56.0989 1802.33,-54.4861 1810.84,-52.9137"/>
<polygon fill="black" stroke="black" points="1811.49,-56.352 1820.69,-51.0935 1810.22,-49.4685 1811.49,-56.352"/>
</g>
<!-- SpatialBN (op#15) -->
<g id="node16" class="node"><title>SpatialBN (op#15)</title>
<polygon fill="#0f9d58" stroke="#0f9d58" points="2065,-84 1946,-84 1946,-48 2065,-48 2065,-84"/>
<text text-anchor="middle" x="2005.5" y="-62.3" font-family="Times,serif" font-size="14.00" fill="#ffffff">SpatialBN (op#15)</text>
</g>
<!-- Sum (op#14)&#45;&gt;SpatialBN (op#15) -->
<g id="edge17" class="edge"><title>Sum (op#14)&#45;&gt;SpatialBN (op#15)</title>
<path fill="none" stroke="black" d="M1910.16,-50.2773C1918.43,-51.6543 1927.25,-53.125 1936.06,-54.5937"/>
<polygon fill="black" stroke="black" points="1935.54,-58.0542 1945.98,-56.2459 1936.69,-51.1495 1935.54,-58.0542"/>
</g>
<!-- Sum (op#21) -->
<g id="node22" class="node"><title>Sum (op#21)</title>
<polygon fill="#0f9d58" stroke="#0f9d58" points="2851,-61 2762,-61 2762,-25 2851,-25 2851,-61"/>
<text text-anchor="middle" x="2806.5" y="-39.3" font-family="Times,serif" font-size="14.00" fill="#ffffff">Sum (op#21)</text>
</g>
<!-- Sum (op#14)&#45;&gt;Sum (op#21) -->
<g id="edge23" class="edge"><title>Sum (op#14)&#45;&gt;Sum (op#21)</title>
<path fill="none" stroke="black" d="M1910.22,-37.1366C1964.91,-30.3223 2061.44,-20 2144.5,-20 2144.5,-20 2144.5,-20 2554.5,-20 2622.66,-20 2700.8,-28.5154 2751.55,-35.1835"/>
<polygon fill="black" stroke="black" points="2751.25,-38.6757 2761.63,-36.532 2752.18,-31.7375 2751.25,-38.6757"/>
</g>
<!-- Relu (op#16) -->
<g id="node17" class="node"><title>Relu (op#16)</title>
<polygon fill="#0f9d58" stroke="#0f9d58" points="2190,-84 2101,-84 2101,-48 2190,-48 2190,-84"/>
<text text-anchor="middle" x="2145.5" y="-62.3" font-family="Times,serif" font-size="14.00" fill="#ffffff">Relu (op#16)</text>
</g>
<!-- SpatialBN (op#15)&#45;&gt;Relu (op#16) -->
<g id="edge18" class="edge"><title>SpatialBN (op#15)&#45;&gt;Relu (op#16)</title>
<path fill="none" stroke="black" d="M2065.02,-66C2073.59,-66 2082.38,-66 2090.84,-66"/>
<polygon fill="black" stroke="black" points="2090.96,-69.5001 2100.96,-66 2090.96,-62.5001 2090.96,-69.5001"/>
</g>
<!-- Conv (op#17) -->
<g id="node18" class="node"><title>Conv (op#17)</title>
<polygon fill="#0f9d58" stroke="#0f9d58" points="2318,-84 2226,-84 2226,-48 2318,-48 2318,-84"/>
<text text-anchor="middle" x="2272" y="-62.3" font-family="Times,serif" font-size="14.00" fill="#ffffff">Conv (op#17)</text>
</g>
<!-- Relu (op#16)&#45;&gt;Conv (op#17) -->
<g id="edge19" class="edge"><title>Relu (op#16)&#45;&gt;Conv (op#17)</title>
<path fill="none" stroke="black" d="M2190.04,-66C2198.22,-66 2206.87,-66 2215.35,-66"/>
<polygon fill="black" stroke="black" points="2215.58,-69.5001 2225.58,-66 2215.58,-62.5001 2215.58,-69.5001"/>
</g>
<!-- SpatialBN (op#18) -->
<g id="node19" class="node"><title>SpatialBN (op#18)</title>
<polygon fill="#0f9d58" stroke="#0f9d58" points="2473,-84 2354,-84 2354,-48 2473,-48 2473,-84"/>
<text text-anchor="middle" x="2413.5" y="-62.3" font-family="Times,serif" font-size="14.00" fill="#ffffff">SpatialBN (op#18)</text>
</g>
<!-- Conv (op#17)&#45;&gt;SpatialBN (op#18) -->
<g id="edge20" class="edge"><title>Conv (op#17)&#45;&gt;SpatialBN (op#18)</title>
<path fill="none" stroke="black" d="M2318.29,-66C2326.47,-66 2335.16,-66 2343.83,-66"/>
<polygon fill="black" stroke="black" points="2343.96,-69.5001 2353.96,-66 2343.96,-62.5001 2343.96,-69.5001"/>
</g>
<!-- Relu (op#19) -->
<g id="node20" class="node"><title>Relu (op#19)</title>
<polygon fill="#0f9d58" stroke="#0f9d58" points="2598,-84 2509,-84 2509,-48 2598,-48 2598,-84"/>
<text text-anchor="middle" x="2553.5" y="-62.3" font-family="Times,serif" font-size="14.00" fill="#ffffff">Relu (op#19)</text>
</g>
<!-- SpatialBN (op#18)&#45;&gt;Relu (op#19) -->
<g id="edge21" class="edge"><title>SpatialBN (op#18)&#45;&gt;Relu (op#19)</title>
<path fill="none" stroke="black" d="M2473.02,-66C2481.59,-66 2490.38,-66 2498.84,-66"/>
<polygon fill="black" stroke="black" points="2498.96,-69.5001 2508.96,-66 2498.96,-62.5001 2498.96,-69.5001"/>
</g>
<!-- Conv (op#20) -->
<g id="node21" class="node"><title>Conv (op#20)</title>
<polygon fill="#0f9d58" stroke="#0f9d58" points="2726,-84 2634,-84 2634,-48 2726,-48 2726,-84"/>
<text text-anchor="middle" x="2680" y="-62.3" font-family="Times,serif" font-size="14.00" fill="#ffffff">Conv (op#20)</text>
</g>
<!-- Relu (op#19)&#45;&gt;Conv (op#20) -->
<g id="edge22" class="edge"><title>Relu (op#19)&#45;&gt;Conv (op#20)</title>
<path fill="none" stroke="black" d="M2598.04,-66C2606.22,-66 2614.87,-66 2623.35,-66"/>
<polygon fill="black" stroke="black" points="2623.58,-69.5001 2633.58,-66 2623.58,-62.5001 2623.58,-69.5001"/>
</g>
<!-- Conv (op#20)&#45;&gt;Sum (op#21) -->
<g id="edge24" class="edge"><title>Conv (op#20)&#45;&gt;Sum (op#21)</title>
<path fill="none" stroke="black" d="M2726.3,-57.6314C2734.59,-56.0989 2743.33,-54.4861 2751.84,-52.9137"/>
<polygon fill="black" stroke="black" points="2752.49,-56.352 2761.69,-51.0935 2751.22,-49.4685 2752.49,-56.352"/>
</g>
<!-- SpatialBN (op#22) -->
<g id="node23" class="node"><title>SpatialBN (op#22)</title>
<polygon fill="#0f9d58" stroke="#0f9d58" points="3006,-61 2887,-61 2887,-25 3006,-25 3006,-61"/>
<text text-anchor="middle" x="2946.5" y="-39.3" font-family="Times,serif" font-size="14.00" fill="#ffffff">SpatialBN (op#22)</text>
</g>
<!-- Sum (op#21)&#45;&gt;SpatialBN (op#22) -->
<g id="edge25" class="edge"><title>Sum (op#21)&#45;&gt;SpatialBN (op#22)</title>
<path fill="none" stroke="black" d="M2851.16,-43C2859.34,-43 2868.06,-43 2876.78,-43"/>
<polygon fill="black" stroke="black" points="2876.98,-46.5001 2886.98,-43 2876.98,-39.5001 2876.98,-46.5001"/>
</g>
<!-- Relu (op#23) -->
<g id="node24" class="node"><title>Relu (op#23)</title>
<polygon fill="#0f9d58" stroke="#0f9d58" points="3131,-61 3042,-61 3042,-25 3131,-25 3131,-61"/>
<text text-anchor="middle" x="3086.5" y="-39.3" font-family="Times,serif" font-size="14.00" fill="#ffffff">Relu (op#23)</text>
</g>
<!-- SpatialBN (op#22)&#45;&gt;Relu (op#23) -->
<g id="edge26" class="edge"><title>SpatialBN (op#22)&#45;&gt;Relu (op#23)</title>
<path fill="none" stroke="black" d="M3006.02,-43C3014.59,-43 3023.38,-43 3031.84,-43"/>
<polygon fill="black" stroke="black" points="3031.96,-46.5001 3041.96,-43 3031.96,-39.5001 3031.96,-46.5001"/>
</g>
<!-- Conv (op#24) -->
<g id="node25" class="node"><title>Conv (op#24)</title>
<polygon fill="#0f9d58" stroke="#0f9d58" points="3259,-88 3167,-88 3167,-52 3259,-52 3259,-88"/>
<text text-anchor="middle" x="3213" y="-66.3" font-family="Times,serif" font-size="14.00" fill="#ffffff">Conv (op#24)</text>
</g>
<!-- Relu (op#23)&#45;&gt;Conv (op#24) -->
<g id="edge27" class="edge"><title>Relu (op#23)&#45;&gt;Conv (op#24)</title>
<path fill="none" stroke="black" d="M3131.04,-52.4433C3139.31,-54.2358 3148.06,-56.1336 3156.63,-57.993"/>
<polygon fill="black" stroke="black" points="3156.06,-61.4507 3166.58,-60.1497 3157.55,-54.6097 3156.06,-61.4507"/>
</g>
<!-- Conv (op#28) -->
<g id="node29" class="node"><title>Conv (op#28)</title>
<polygon fill="#0f9d58" stroke="#0f9d58" points="3400.5,-36 3308.5,-36 3308.5,-0 3400.5,-0 3400.5,-36"/>
<text text-anchor="middle" x="3354.5" y="-14.3" font-family="Times,serif" font-size="14.00" fill="#ffffff">Conv (op#28)</text>
</g>
<!-- Relu (op#23)&#45;&gt;Conv (op#28) -->
<g id="edge31" class="edge"><title>Relu (op#23)&#45;&gt;Conv (op#28)</title>
<path fill="none" stroke="black" d="M3131.13,-38.8998C3176.67,-34.6191 3248.25,-27.8923 3297.84,-23.2315"/>
<polygon fill="black" stroke="black" points="3298.44,-26.6904 3308.07,-22.27 3297.78,-19.7211 3298.44,-26.6904"/>
</g>
<!-- SpatialBN (op#25) -->
<g id="node26" class="node"><title>SpatialBN (op#25)</title>
<polygon fill="#0f9d58" stroke="#0f9d58" points="3414,-90 3295,-90 3295,-54 3414,-54 3414,-90"/>
<text text-anchor="middle" x="3354.5" y="-68.3" font-family="Times,serif" font-size="14.00" fill="#ffffff">SpatialBN (op#25)</text>
</g>
<!-- Conv (op#24)&#45;&gt;SpatialBN (op#25) -->
<g id="edge28" class="edge"><title>Conv (op#24)&#45;&gt;SpatialBN (op#25)</title>
<path fill="none" stroke="black" d="M3259.29,-70.6493C3267.47,-70.7666 3276.16,-70.8912 3284.83,-71.0154"/>
<polygon fill="black" stroke="black" points="3284.91,-74.5169 3294.96,-71.1607 3285.01,-67.5176 3284.91,-74.5169"/>
</g>
<!-- Relu (op#26) -->
<g id="node27" class="node"><title>Relu (op#26)</title>
<polygon fill="#0f9d58" stroke="#0f9d58" points="3539,-89 3450,-89 3450,-53 3539,-53 3539,-89"/>
<text text-anchor="middle" x="3494.5" y="-67.3" font-family="Times,serif" font-size="14.00" fill="#ffffff">Relu (op#26)</text>
</g>
<!-- SpatialBN (op#25)&#45;&gt;Relu (op#26) -->
<g id="edge29" class="edge"><title>SpatialBN (op#25)&#45;&gt;Relu (op#26)</title>
<path fill="none" stroke="black" d="M3414.02,-71.5759C3422.59,-71.5138 3431.38,-71.4502 3439.84,-71.3889"/>
<polygon fill="black" stroke="black" points="3439.99,-74.888 3449.96,-71.3155 3439.94,-67.8882 3439.99,-74.888"/>
</g>
<!-- Conv (op#27) -->
<g id="node28" class="node"><title>Conv (op#27)</title>
<polygon fill="#0f9d58" stroke="#0f9d58" points="3667,-87 3575,-87 3575,-51 3667,-51 3667,-87"/>
<text text-anchor="middle" x="3621" y="-65.3" font-family="Times,serif" font-size="14.00" fill="#ffffff">Conv (op#27)</text>
</g>
<!-- Relu (op#26)&#45;&gt;Conv (op#27) -->
<g id="edge30" class="edge"><title>Relu (op#26)&#45;&gt;Conv (op#27)</title>
<path fill="none" stroke="black" d="M3539.04,-70.3005C3547.22,-70.1692 3555.87,-70.0302 3564.35,-69.8939"/>
<polygon fill="black" stroke="black" points="3564.64,-73.3899 3574.58,-69.7297 3564.52,-66.3908 3564.64,-73.3899"/>
</g>
<!-- Sum (op#29) -->
<g id="node30" class="node"><title>Sum (op#29)</title>
<polygon fill="#0f9d58" stroke="#0f9d58" points="3792,-63 3703,-63 3703,-27 3792,-27 3792,-63"/>
<text text-anchor="middle" x="3747.5" y="-41.3" font-family="Times,serif" font-size="14.00" fill="#ffffff">Sum (op#29)</text>
</g>
<!-- Conv (op#27)&#45;&gt;Sum (op#29) -->
<g id="edge33" class="edge"><title>Conv (op#27)&#45;&gt;Sum (op#29)</title>
<path fill="none" stroke="black" d="M3667.3,-60.2676C3675.59,-58.6684 3684.33,-56.9855 3692.84,-55.3447"/>
<polygon fill="black" stroke="black" points="3693.53,-58.7751 3702.69,-53.4454 3692.21,-51.9016 3693.53,-58.7751"/>
</g>
<!-- Conv (op#28)&#45;&gt;Sum (op#29) -->
<g id="edge32" class="edge"><title>Conv (op#28)&#45;&gt;Sum (op#29)</title>
<path fill="none" stroke="black" d="M3400.73,-21.1236C3473.26,-26.132 3615.27,-35.9384 3692.82,-41.2935"/>
<polygon fill="black" stroke="black" points="3692.65,-44.7897 3702.87,-41.987 3693.13,-37.8063 3692.65,-44.7897"/>
</g>
<!-- SpatialBN (op#30) -->
<g id="node31" class="node"><title>SpatialBN (op#30)</title>
<polygon fill="#0f9d58" stroke="#0f9d58" points="3947,-86 3828,-86 3828,-50 3947,-50 3947,-86"/>
<text text-anchor="middle" x="3887.5" y="-64.3" font-family="Times,serif" font-size="14.00" fill="#ffffff">SpatialBN (op#30)</text>
</g>
<!-- Sum (op#29)&#45;&gt;SpatialBN (op#30) -->
<g id="edge34" class="edge"><title>Sum (op#29)&#45;&gt;SpatialBN (op#30)</title>
<path fill="none" stroke="black" d="M3792.16,-52.2773C3800.43,-53.6543 3809.25,-55.125 3818.06,-56.5937"/>
<polygon fill="black" stroke="black" points="3817.54,-60.0542 3827.98,-58.2459 3818.69,-53.1495 3817.54,-60.0542"/>
</g>
<!-- Sum (op#36) -->
<g id="node37" class="node"><title>Sum (op#36)</title>
<polygon fill="#0f9d58" stroke="#0f9d58" points="4733,-63 4644,-63 4644,-27 4733,-27 4733,-63"/>
<text text-anchor="middle" x="4688.5" y="-41.3" font-family="Times,serif" font-size="14.00" fill="#ffffff">Sum (op#36)</text>
</g>
<!-- Sum (op#29)&#45;&gt;Sum (op#36) -->
<g id="edge40" class="edge"><title>Sum (op#29)&#45;&gt;Sum (op#36)</title>
<path fill="none" stroke="black" d="M3792.22,-39.1366C3846.91,-32.3223 3943.44,-22 4026.5,-22 4026.5,-22 4026.5,-22 4436.5,-22 4504.66,-22 4582.8,-30.5154 4633.55,-37.1835"/>
<polygon fill="black" stroke="black" points="4633.25,-40.6757 4643.63,-38.532 4634.18,-33.7375 4633.25,-40.6757"/>
</g>
<!-- Relu (op#31) -->
<g id="node32" class="node"><title>Relu (op#31)</title>
<polygon fill="#0f9d58" stroke="#0f9d58" points="4072,-86 3983,-86 3983,-50 4072,-50 4072,-86"/>
<text text-anchor="middle" x="4027.5" y="-64.3" font-family="Times,serif" font-size="14.00" fill="#ffffff">Relu (op#31)</text>
</g>
<!-- SpatialBN (op#30)&#45;&gt;Relu (op#31) -->
<g id="edge35" class="edge"><title>SpatialBN (op#30)&#45;&gt;Relu (op#31)</title>
<path fill="none" stroke="black" d="M3947.02,-68C3955.59,-68 3964.38,-68 3972.84,-68"/>
<polygon fill="black" stroke="black" points="3972.96,-71.5001 3982.96,-68 3972.96,-64.5001 3972.96,-71.5001"/>
</g>
<!-- Conv (op#32) -->
<g id="node33" class="node"><title>Conv (op#32)</title>
<polygon fill="#0f9d58" stroke="#0f9d58" points="4200,-86 4108,-86 4108,-50 4200,-50 4200,-86"/>
<text text-anchor="middle" x="4154" y="-64.3" font-family="Times,serif" font-size="14.00" fill="#ffffff">Conv (op#32)</text>
</g>
<!-- Relu (op#31)&#45;&gt;Conv (op#32) -->
<g id="edge36" class="edge"><title>Relu (op#31)&#45;&gt;Conv (op#32)</title>
<path fill="none" stroke="black" d="M4072.04,-68C4080.22,-68 4088.87,-68 4097.35,-68"/>
<polygon fill="black" stroke="black" points="4097.58,-71.5001 4107.58,-68 4097.58,-64.5001 4097.58,-71.5001"/>
</g>
<!-- SpatialBN (op#33) -->
<g id="node34" class="node"><title>SpatialBN (op#33)</title>
<polygon fill="#0f9d58" stroke="#0f9d58" points="4355,-86 4236,-86 4236,-50 4355,-50 4355,-86"/>
<text text-anchor="middle" x="4295.5" y="-64.3" font-family="Times,serif" font-size="14.00" fill="#ffffff">SpatialBN (op#33)</text>
</g>
<!-- Conv (op#32)&#45;&gt;SpatialBN (op#33) -->
<g id="edge37" class="edge"><title>Conv (op#32)&#45;&gt;SpatialBN (op#33)</title>
<path fill="none" stroke="black" d="M4200.29,-68C4208.47,-68 4217.16,-68 4225.83,-68"/>
<polygon fill="black" stroke="black" points="4225.96,-71.5001 4235.96,-68 4225.96,-64.5001 4225.96,-71.5001"/>
</g>
<!-- Relu (op#34) -->
<g id="node35" class="node"><title>Relu (op#34)</title>
<polygon fill="#0f9d58" stroke="#0f9d58" points="4480,-86 4391,-86 4391,-50 4480,-50 4480,-86"/>
<text text-anchor="middle" x="4435.5" y="-64.3" font-family="Times,serif" font-size="14.00" fill="#ffffff">Relu (op#34)</text>
</g>
<!-- SpatialBN (op#33)&#45;&gt;Relu (op#34) -->
<g id="edge38" class="edge"><title>SpatialBN (op#33)&#45;&gt;Relu (op#34)</title>
<path fill="none" stroke="black" d="M4355.02,-68C4363.59,-68 4372.38,-68 4380.84,-68"/>
<polygon fill="black" stroke="black" points="4380.96,-71.5001 4390.96,-68 4380.96,-64.5001 4380.96,-71.5001"/>
</g>
<!-- Conv (op#35) -->
<g id="node36" class="node"><title>Conv (op#35)</title>
<polygon fill="#0f9d58" stroke="#0f9d58" points="4608,-86 4516,-86 4516,-50 4608,-50 4608,-86"/>
<text text-anchor="middle" x="4562" y="-64.3" font-family="Times,serif" font-size="14.00" fill="#ffffff">Conv (op#35)</text>
</g>
<!-- Relu (op#34)&#45;&gt;Conv (op#35) -->
<g id="edge39" class="edge"><title>Relu (op#34)&#45;&gt;Conv (op#35)</title>
<path fill="none" stroke="black" d="M4480.04,-68C4488.22,-68 4496.87,-68 4505.35,-68"/>
<polygon fill="black" stroke="black" points="4505.58,-71.5001 4515.58,-68 4505.58,-64.5001 4505.58,-71.5001"/>
</g>
<!-- Conv (op#35)&#45;&gt;Sum (op#36) -->
<g id="edge41" class="edge"><title>Conv (op#35)&#45;&gt;Sum (op#36)</title>
<path fill="none" stroke="black" d="M4608.3,-59.6314C4616.59,-58.0989 4625.33,-56.4861 4633.84,-54.9137"/>
<polygon fill="black" stroke="black" points="4634.49,-58.352 4643.69,-53.0935 4633.22,-51.4685 4634.49,-58.352"/>
</g>
<!-- SpatialBN (op#37) -->
<g id="node38" class="node"><title>SpatialBN (op#37)</title>
<polygon fill="#0f9d58" stroke="#0f9d58" points="4888,-86 4769,-86 4769,-50 4888,-50 4888,-86"/>
<text text-anchor="middle" x="4828.5" y="-64.3" font-family="Times,serif" font-size="14.00" fill="#ffffff">SpatialBN (op#37)</text>
</g>
<!-- Sum (op#36)&#45;&gt;SpatialBN (op#37) -->
<g id="edge42" class="edge"><title>Sum (op#36)&#45;&gt;SpatialBN (op#37)</title>
<path fill="none" stroke="black" d="M4733.16,-52.2773C4741.43,-53.6543 4750.25,-55.125 4759.06,-56.5937"/>
<polygon fill="black" stroke="black" points="4758.54,-60.0542 4768.98,-58.2459 4759.69,-53.1495 4758.54,-60.0542"/>
</g>
<!-- Sum (op#43) -->
<g id="node44" class="node"><title>Sum (op#43)</title>
<polygon fill="#0f9d58" stroke="#0f9d58" points="5674,-63 5585,-63 5585,-27 5674,-27 5674,-63"/>
<text text-anchor="middle" x="5629.5" y="-41.3" font-family="Times,serif" font-size="14.00" fill="#ffffff">Sum (op#43)</text>
</g>
<!-- Sum (op#36)&#45;&gt;Sum (op#43) -->
<g id="edge48" class="edge"><title>Sum (op#36)&#45;&gt;Sum (op#43)</title>
<path fill="none" stroke="black" d="M4733.22,-39.1366C4787.91,-32.3223 4884.44,-22 4967.5,-22 4967.5,-22 4967.5,-22 5377.5,-22 5445.66,-22 5523.8,-30.5154 5574.55,-37.1835"/>
<polygon fill="black" stroke="black" points="5574.25,-40.6757 5584.63,-38.532 5575.18,-33.7375 5574.25,-40.6757"/>
</g>
<!-- Relu (op#38) -->
<g id="node39" class="node"><title>Relu (op#38)</title>
<polygon fill="#0f9d58" stroke="#0f9d58" points="5013,-86 4924,-86 4924,-50 5013,-50 5013,-86"/>
<text text-anchor="middle" x="4968.5" y="-64.3" font-family="Times,serif" font-size="14.00" fill="#ffffff">Relu (op#38)</text>
</g>
<!-- SpatialBN (op#37)&#45;&gt;Relu (op#38) -->
<g id="edge43" class="edge"><title>SpatialBN (op#37)&#45;&gt;Relu (op#38)</title>
<path fill="none" stroke="black" d="M4888.02,-68C4896.59,-68 4905.38,-68 4913.84,-68"/>
<polygon fill="black" stroke="black" points="4913.96,-71.5001 4923.96,-68 4913.96,-64.5001 4913.96,-71.5001"/>
</g>
<!-- Conv (op#39) -->
<g id="node40" class="node"><title>Conv (op#39)</title>
<polygon fill="#0f9d58" stroke="#0f9d58" points="5141,-86 5049,-86 5049,-50 5141,-50 5141,-86"/>
<text text-anchor="middle" x="5095" y="-64.3" font-family="Times,serif" font-size="14.00" fill="#ffffff">Conv (op#39)</text>
</g>
<!-- Relu (op#38)&#45;&gt;Conv (op#39) -->
<g id="edge44" class="edge"><title>Relu (op#38)&#45;&gt;Conv (op#39)</title>
<path fill="none" stroke="black" d="M5013.04,-68C5021.22,-68 5029.87,-68 5038.35,-68"/>
<polygon fill="black" stroke="black" points="5038.58,-71.5001 5048.58,-68 5038.58,-64.5001 5038.58,-71.5001"/>
</g>
<!-- SpatialBN (op#40) -->
<g id="node41" class="node"><title>SpatialBN (op#40)</title>
<polygon fill="#0f9d58" stroke="#0f9d58" points="5296,-86 5177,-86 5177,-50 5296,-50 5296,-86"/>
<text text-anchor="middle" x="5236.5" y="-64.3" font-family="Times,serif" font-size="14.00" fill="#ffffff">SpatialBN (op#40)</text>
</g>
<!-- Conv (op#39)&#45;&gt;SpatialBN (op#40) -->
<g id="edge45" class="edge"><title>Conv (op#39)&#45;&gt;SpatialBN (op#40)</title>
<path fill="none" stroke="black" d="M5141.29,-68C5149.47,-68 5158.16,-68 5166.83,-68"/>
<polygon fill="black" stroke="black" points="5166.96,-71.5001 5176.96,-68 5166.96,-64.5001 5166.96,-71.5001"/>
</g>
<!-- Relu (op#41) -->
<g id="node42" class="node"><title>Relu (op#41)</title>
<polygon fill="#0f9d58" stroke="#0f9d58" points="5421,-86 5332,-86 5332,-50 5421,-50 5421,-86"/>
<text text-anchor="middle" x="5376.5" y="-64.3" font-family="Times,serif" font-size="14.00" fill="#ffffff">Relu (op#41)</text>
</g>
<!-- SpatialBN (op#40)&#45;&gt;Relu (op#41) -->
<g id="edge46" class="edge"><title>SpatialBN (op#40)&#45;&gt;Relu (op#41)</title>
<path fill="none" stroke="black" d="M5296.02,-68C5304.59,-68 5313.38,-68 5321.84,-68"/>
<polygon fill="black" stroke="black" points="5321.96,-71.5001 5331.96,-68 5321.96,-64.5001 5321.96,-71.5001"/>
</g>
<!-- Conv (op#42) -->
<g id="node43" class="node"><title>Conv (op#42)</title>
<polygon fill="#0f9d58" stroke="#0f9d58" points="5549,-86 5457,-86 5457,-50 5549,-50 5549,-86"/>
<text text-anchor="middle" x="5503" y="-64.3" font-family="Times,serif" font-size="14.00" fill="#ffffff">Conv (op#42)</text>
</g>
<!-- Relu (op#41)&#45;&gt;Conv (op#42) -->
<g id="edge47" class="edge"><title>Relu (op#41)&#45;&gt;Conv (op#42)</title>
<path fill="none" stroke="black" d="M5421.04,-68C5429.22,-68 5437.87,-68 5446.35,-68"/>
<polygon fill="black" stroke="black" points="5446.58,-71.5001 5456.58,-68 5446.58,-64.5001 5446.58,-71.5001"/>
</g>
<!-- Conv (op#42)&#45;&gt;Sum (op#43) -->
<g id="edge49" class="edge"><title>Conv (op#42)&#45;&gt;Sum (op#43)</title>
<path fill="none" stroke="black" d="M5549.3,-59.6314C5557.59,-58.0989 5566.33,-56.4861 5574.84,-54.9137"/>
<polygon fill="black" stroke="black" points="5575.49,-58.352 5584.69,-53.0935 5574.22,-51.4685 5575.49,-58.352"/>
</g>
<!-- SpatialBN (op#44) -->
<g id="node45" class="node"><title>SpatialBN (op#44)</title>
<polygon fill="#0f9d58" stroke="#0f9d58" points="5829,-63 5710,-63 5710,-27 5829,-27 5829,-63"/>
<text text-anchor="middle" x="5769.5" y="-41.3" font-family="Times,serif" font-size="14.00" fill="#ffffff">SpatialBN (op#44)</text>
</g>
<!-- Sum (op#43)&#45;&gt;SpatialBN (op#44) -->
<g id="edge50" class="edge"><title>Sum (op#43)&#45;&gt;SpatialBN (op#44)</title>
<path fill="none" stroke="black" d="M5674.16,-45C5682.34,-45 5691.06,-45 5699.78,-45"/>
<polygon fill="black" stroke="black" points="5699.98,-48.5001 5709.98,-45 5699.98,-41.5001 5699.98,-48.5001"/>
</g>
<!-- Relu (op#45) -->
<g id="node46" class="node"><title>Relu (op#45)</title>
<polygon fill="#0f9d58" stroke="#0f9d58" points="5954,-63 5865,-63 5865,-27 5954,-27 5954,-63"/>
<text text-anchor="middle" x="5909.5" y="-41.3" font-family="Times,serif" font-size="14.00" fill="#ffffff">Relu (op#45)</text>
</g>
<!-- SpatialBN (op#44)&#45;&gt;Relu (op#45) -->
<g id="edge51" class="edge"><title>SpatialBN (op#44)&#45;&gt;Relu (op#45)</title>
<path fill="none" stroke="black" d="M5829.02,-45C5837.59,-45 5846.38,-45 5854.84,-45"/>
<polygon fill="black" stroke="black" points="5854.96,-48.5001 5864.96,-45 5854.96,-41.5001 5854.96,-48.5001"/>
</g>
<!-- Conv (op#46) -->
<g id="node47" class="node"><title>Conv (op#46)</title>
<polygon fill="#0f9d58" stroke="#0f9d58" points="6082,-90 5990,-90 5990,-54 6082,-54 6082,-90"/>
<text text-anchor="middle" x="6036" y="-68.3" font-family="Times,serif" font-size="14.00" fill="#ffffff">Conv (op#46)</text>
</g>
<!-- Relu (op#45)&#45;&gt;Conv (op#46) -->
<g id="edge52" class="edge"><title>Relu (op#45)&#45;&gt;Conv (op#46)</title>
<path fill="none" stroke="black" d="M5954.04,-54.4433C5962.31,-56.2358 5971.06,-58.1336 5979.63,-59.993"/>
<polygon fill="black" stroke="black" points="5979.06,-63.4507 5989.58,-62.1497 5980.55,-56.6097 5979.06,-63.4507"/>
</g>
<!-- Conv (op#50) -->
<g id="node51" class="node"><title>Conv (op#50)</title>
<polygon fill="#0f9d58" stroke="#0f9d58" points="6223.5,-38 6131.5,-38 6131.5,-2 6223.5,-2 6223.5,-38"/>
<text text-anchor="middle" x="6177.5" y="-16.3" font-family="Times,serif" font-size="14.00" fill="#ffffff">Conv (op#50)</text>
</g>
<!-- Relu (op#45)&#45;&gt;Conv (op#50) -->
<g id="edge56" class="edge"><title>Relu (op#45)&#45;&gt;Conv (op#50)</title>
<path fill="none" stroke="black" d="M5954.13,-40.8998C5999.67,-36.6191 6071.25,-29.8923 6120.84,-25.2315"/>
<polygon fill="black" stroke="black" points="6121.44,-28.6904 6131.07,-24.27 6120.78,-21.7211 6121.44,-28.6904"/>
</g>
<!-- SpatialBN (op#47) -->
<g id="node48" class="node"><title>SpatialBN (op#47)</title>
<polygon fill="#0f9d58" stroke="#0f9d58" points="6237,-92 6118,-92 6118,-56 6237,-56 6237,-92"/>
<text text-anchor="middle" x="6177.5" y="-70.3" font-family="Times,serif" font-size="14.00" fill="#ffffff">SpatialBN (op#47)</text>
</g>
<!-- Conv (op#46)&#45;&gt;SpatialBN (op#47) -->
<g id="edge53" class="edge"><title>Conv (op#46)&#45;&gt;SpatialBN (op#47)</title>
<path fill="none" stroke="black" d="M6082.29,-72.6493C6090.47,-72.7666 6099.16,-72.8912 6107.83,-73.0154"/>
<polygon fill="black" stroke="black" points="6107.91,-76.5169 6117.96,-73.1607 6108.01,-69.5176 6107.91,-76.5169"/>
</g>
<!-- Relu (op#48) -->
<g id="node49" class="node"><title>Relu (op#48)</title>
<polygon fill="#0f9d58" stroke="#0f9d58" points="6362,-91 6273,-91 6273,-55 6362,-55 6362,-91"/>
<text text-anchor="middle" x="6317.5" y="-69.3" font-family="Times,serif" font-size="14.00" fill="#ffffff">Relu (op#48)</text>
</g>
<!-- SpatialBN (op#47)&#45;&gt;Relu (op#48) -->
<g id="edge54" class="edge"><title>SpatialBN (op#47)&#45;&gt;Relu (op#48)</title>
<path fill="none" stroke="black" d="M6237.02,-73.5759C6245.59,-73.5138 6254.38,-73.4502 6262.84,-73.3889"/>
<polygon fill="black" stroke="black" points="6262.99,-76.888 6272.96,-73.3155 6262.94,-69.8882 6262.99,-76.888"/>
</g>
<!-- Conv (op#49) -->
<g id="node50" class="node"><title>Conv (op#49)</title>
<polygon fill="#0f9d58" stroke="#0f9d58" points="6490,-89 6398,-89 6398,-53 6490,-53 6490,-89"/>
<text text-anchor="middle" x="6444" y="-67.3" font-family="Times,serif" font-size="14.00" fill="#ffffff">Conv (op#49)</text>
</g>
<!-- Relu (op#48)&#45;&gt;Conv (op#49) -->
<g id="edge55" class="edge"><title>Relu (op#48)&#45;&gt;Conv (op#49)</title>
<path fill="none" stroke="black" d="M6362.04,-72.3005C6370.22,-72.1692 6378.87,-72.0302 6387.35,-71.8939"/>
<polygon fill="black" stroke="black" points="6387.64,-75.3899 6397.58,-71.7297 6387.52,-68.3908 6387.64,-75.3899"/>
</g>
<!-- Sum (op#51) -->
<g id="node52" class="node"><title>Sum (op#51)</title>
<polygon fill="#0f9d58" stroke="#0f9d58" points="6615,-65 6526,-65 6526,-29 6615,-29 6615,-65"/>
<text text-anchor="middle" x="6570.5" y="-43.3" font-family="Times,serif" font-size="14.00" fill="#ffffff">Sum (op#51)</text>
</g>
<!-- Conv (op#49)&#45;&gt;Sum (op#51) -->
<g id="edge58" class="edge"><title>Conv (op#49)&#45;&gt;Sum (op#51)</title>
<path fill="none" stroke="black" d="M6490.3,-62.2676C6498.59,-60.6684 6507.33,-58.9855 6515.84,-57.3447"/>
<polygon fill="black" stroke="black" points="6516.53,-60.7751 6525.69,-55.4454 6515.21,-53.9016 6516.53,-60.7751"/>
</g>
<!-- Conv (op#50)&#45;&gt;Sum (op#51) -->
<g id="edge57" class="edge"><title>Conv (op#50)&#45;&gt;Sum (op#51)</title>
<path fill="none" stroke="black" d="M6223.73,-23.1236C6296.26,-28.132 6438.27,-37.9384 6515.82,-43.2935"/>
<polygon fill="black" stroke="black" points="6515.65,-46.7897 6525.87,-43.987 6516.13,-39.8063 6515.65,-46.7897"/>
</g>
<!-- SpatialBN (op#52) -->
<g id="node53" class="node"><title>SpatialBN (op#52)</title>
<polygon fill="#0f9d58" stroke="#0f9d58" points="6770,-88 6651,-88 6651,-52 6770,-52 6770,-88"/>
<text text-anchor="middle" x="6710.5" y="-66.3" font-family="Times,serif" font-size="14.00" fill="#ffffff">SpatialBN (op#52)</text>
</g>
<!-- Sum (op#51)&#45;&gt;SpatialBN (op#52) -->
<g id="edge59" class="edge"><title>Sum (op#51)&#45;&gt;SpatialBN (op#52)</title>
<path fill="none" stroke="black" d="M6615.16,-54.2773C6623.43,-55.6543 6632.25,-57.125 6641.06,-58.5937"/>
<polygon fill="black" stroke="black" points="6640.54,-62.0542 6650.98,-60.2459 6641.69,-55.1495 6640.54,-62.0542"/>
</g>
<!-- Sum (op#58) -->
<g id="node59" class="node"><title>Sum (op#58)</title>
<polygon fill="#0f9d58" stroke="#0f9d58" points="7556,-65 7467,-65 7467,-29 7556,-29 7556,-65"/>
<text text-anchor="middle" x="7511.5" y="-43.3" font-family="Times,serif" font-size="14.00" fill="#ffffff">Sum (op#58)</text>
</g>
<!-- Sum (op#51)&#45;&gt;Sum (op#58) -->
<g id="edge65" class="edge"><title>Sum (op#51)&#45;&gt;Sum (op#58)</title>
<path fill="none" stroke="black" d="M6615.22,-41.1366C6669.91,-34.3223 6766.44,-24 6849.5,-24 6849.5,-24 6849.5,-24 7259.5,-24 7327.66,-24 7405.8,-32.5154 7456.55,-39.1835"/>
<polygon fill="black" stroke="black" points="7456.25,-42.6757 7466.63,-40.532 7457.18,-35.7375 7456.25,-42.6757"/>
</g>
<!-- Relu (op#53) -->
<g id="node54" class="node"><title>Relu (op#53)</title>
<polygon fill="#0f9d58" stroke="#0f9d58" points="6895,-88 6806,-88 6806,-52 6895,-52 6895,-88"/>
<text text-anchor="middle" x="6850.5" y="-66.3" font-family="Times,serif" font-size="14.00" fill="#ffffff">Relu (op#53)</text>
</g>
<!-- SpatialBN (op#52)&#45;&gt;Relu (op#53) -->
<g id="edge60" class="edge"><title>SpatialBN (op#52)&#45;&gt;Relu (op#53)</title>
<path fill="none" stroke="black" d="M6770.02,-70C6778.59,-70 6787.38,-70 6795.84,-70"/>
<polygon fill="black" stroke="black" points="6795.96,-73.5001 6805.96,-70 6795.96,-66.5001 6795.96,-73.5001"/>
</g>
<!-- Conv (op#54) -->
<g id="node55" class="node"><title>Conv (op#54)</title>
<polygon fill="#0f9d58" stroke="#0f9d58" points="7023,-88 6931,-88 6931,-52 7023,-52 7023,-88"/>
<text text-anchor="middle" x="6977" y="-66.3" font-family="Times,serif" font-size="14.00" fill="#ffffff">Conv (op#54)</text>
</g>
<!-- Relu (op#53)&#45;&gt;Conv (op#54) -->
<g id="edge61" class="edge"><title>Relu (op#53)&#45;&gt;Conv (op#54)</title>
<path fill="none" stroke="black" d="M6895.04,-70C6903.22,-70 6911.87,-70 6920.35,-70"/>
<polygon fill="black" stroke="black" points="6920.58,-73.5001 6930.58,-70 6920.58,-66.5001 6920.58,-73.5001"/>
</g>
<!-- SpatialBN (op#55) -->
<g id="node56" class="node"><title>SpatialBN (op#55)</title>
<polygon fill="#0f9d58" stroke="#0f9d58" points="7178,-88 7059,-88 7059,-52 7178,-52 7178,-88"/>
<text text-anchor="middle" x="7118.5" y="-66.3" font-family="Times,serif" font-size="14.00" fill="#ffffff">SpatialBN (op#55)</text>
</g>
<!-- Conv (op#54)&#45;&gt;SpatialBN (op#55) -->
<g id="edge62" class="edge"><title>Conv (op#54)&#45;&gt;SpatialBN (op#55)</title>
<path fill="none" stroke="black" d="M7023.29,-70C7031.47,-70 7040.16,-70 7048.83,-70"/>
<polygon fill="black" stroke="black" points="7048.96,-73.5001 7058.96,-70 7048.96,-66.5001 7048.96,-73.5001"/>
</g>
<!-- Relu (op#56) -->
<g id="node57" class="node"><title>Relu (op#56)</title>
<polygon fill="#0f9d58" stroke="#0f9d58" points="7303,-88 7214,-88 7214,-52 7303,-52 7303,-88"/>
<text text-anchor="middle" x="7258.5" y="-66.3" font-family="Times,serif" font-size="14.00" fill="#ffffff">Relu (op#56)</text>
</g>
<!-- SpatialBN (op#55)&#45;&gt;Relu (op#56) -->
<g id="edge63" class="edge"><title>SpatialBN (op#55)&#45;&gt;Relu (op#56)</title>
<path fill="none" stroke="black" d="M7178.02,-70C7186.59,-70 7195.38,-70 7203.84,-70"/>
<polygon fill="black" stroke="black" points="7203.96,-73.5001 7213.96,-70 7203.96,-66.5001 7203.96,-73.5001"/>
</g>
<!-- Conv (op#57) -->
<g id="node58" class="node"><title>Conv (op#57)</title>
<polygon fill="#0f9d58" stroke="#0f9d58" points="7431,-88 7339,-88 7339,-52 7431,-52 7431,-88"/>
<text text-anchor="middle" x="7385" y="-66.3" font-family="Times,serif" font-size="14.00" fill="#ffffff">Conv (op#57)</text>
</g>
<!-- Relu (op#56)&#45;&gt;Conv (op#57) -->
<g id="edge64" class="edge"><title>Relu (op#56)&#45;&gt;Conv (op#57)</title>
<path fill="none" stroke="black" d="M7303.04,-70C7311.22,-70 7319.87,-70 7328.35,-70"/>
<polygon fill="black" stroke="black" points="7328.58,-73.5001 7338.58,-70 7328.58,-66.5001 7328.58,-73.5001"/>
</g>
<!-- Conv (op#57)&#45;&gt;Sum (op#58) -->
<g id="edge66" class="edge"><title>Conv (op#57)&#45;&gt;Sum (op#58)</title>
<path fill="none" stroke="black" d="M7431.3,-61.6314C7439.59,-60.0989 7448.33,-58.4861 7456.84,-56.9137"/>
<polygon fill="black" stroke="black" points="7457.49,-60.352 7466.69,-55.0935 7456.22,-53.4685 7457.49,-60.352"/>
</g>
<!-- SpatialBN (op#59) -->
<g id="node60" class="node"><title>SpatialBN (op#59)</title>
<polygon fill="#0f9d58" stroke="#0f9d58" points="7711,-88 7592,-88 7592,-52 7711,-52 7711,-88"/>
<text text-anchor="middle" x="7651.5" y="-66.3" font-family="Times,serif" font-size="14.00" fill="#ffffff">SpatialBN (op#59)</text>
</g>
<!-- Sum (op#58)&#45;&gt;SpatialBN (op#59) -->
<g id="edge67" class="edge"><title>Sum (op#58)&#45;&gt;SpatialBN (op#59)</title>
<path fill="none" stroke="black" d="M7556.16,-54.2773C7564.43,-55.6543 7573.25,-57.125 7582.06,-58.5937"/>
<polygon fill="black" stroke="black" points="7581.54,-62.0542 7591.98,-60.2459 7582.69,-55.1495 7581.54,-62.0542"/>
</g>
<!-- Sum (op#65) -->
<g id="node66" class="node"><title>Sum (op#65)</title>
<polygon fill="#0f9d58" stroke="#0f9d58" points="8497,-65 8408,-65 8408,-29 8497,-29 8497,-65"/>
<text text-anchor="middle" x="8452.5" y="-43.3" font-family="Times,serif" font-size="14.00" fill="#ffffff">Sum (op#65)</text>
</g>
<!-- Sum (op#58)&#45;&gt;Sum (op#65) -->
<g id="edge73" class="edge"><title>Sum (op#58)&#45;&gt;Sum (op#65)</title>
<path fill="none" stroke="black" d="M7556.22,-41.1366C7610.91,-34.3223 7707.44,-24 7790.5,-24 7790.5,-24 7790.5,-24 8200.5,-24 8268.66,-24 8346.8,-32.5154 8397.55,-39.1835"/>
<polygon fill="black" stroke="black" points="8397.25,-42.6757 8407.63,-40.532 8398.18,-35.7375 8397.25,-42.6757"/>
</g>
<!-- Relu (op#60) -->
<g id="node61" class="node"><title>Relu (op#60)</title>
<polygon fill="#0f9d58" stroke="#0f9d58" points="7836,-88 7747,-88 7747,-52 7836,-52 7836,-88"/>
<text text-anchor="middle" x="7791.5" y="-66.3" font-family="Times,serif" font-size="14.00" fill="#ffffff">Relu (op#60)</text>
</g>
<!-- SpatialBN (op#59)&#45;&gt;Relu (op#60) -->
<g id="edge68" class="edge"><title>SpatialBN (op#59)&#45;&gt;Relu (op#60)</title>
<path fill="none" stroke="black" d="M7711.02,-70C7719.59,-70 7728.38,-70 7736.84,-70"/>
<polygon fill="black" stroke="black" points="7736.96,-73.5001 7746.96,-70 7736.96,-66.5001 7736.96,-73.5001"/>
</g>
<!-- Conv (op#61) -->
<g id="node62" class="node"><title>Conv (op#61)</title>
<polygon fill="#0f9d58" stroke="#0f9d58" points="7964,-88 7872,-88 7872,-52 7964,-52 7964,-88"/>
<text text-anchor="middle" x="7918" y="-66.3" font-family="Times,serif" font-size="14.00" fill="#ffffff">Conv (op#61)</text>
</g>
<!-- Relu (op#60)&#45;&gt;Conv (op#61) -->
<g id="edge69" class="edge"><title>Relu (op#60)&#45;&gt;Conv (op#61)</title>
<path fill="none" stroke="black" d="M7836.04,-70C7844.22,-70 7852.87,-70 7861.35,-70"/>
<polygon fill="black" stroke="black" points="7861.58,-73.5001 7871.58,-70 7861.58,-66.5001 7861.58,-73.5001"/>
</g>
<!-- SpatialBN (op#62) -->
<g id="node63" class="node"><title>SpatialBN (op#62)</title>
<polygon fill="#0f9d58" stroke="#0f9d58" points="8119,-88 8000,-88 8000,-52 8119,-52 8119,-88"/>
<text text-anchor="middle" x="8059.5" y="-66.3" font-family="Times,serif" font-size="14.00" fill="#ffffff">SpatialBN (op#62)</text>
</g>
<!-- Conv (op#61)&#45;&gt;SpatialBN (op#62) -->
<g id="edge70" class="edge"><title>Conv (op#61)&#45;&gt;SpatialBN (op#62)</title>
<path fill="none" stroke="black" d="M7964.29,-70C7972.47,-70 7981.16,-70 7989.83,-70"/>
<polygon fill="black" stroke="black" points="7989.96,-73.5001 7999.96,-70 7989.96,-66.5001 7989.96,-73.5001"/>
</g>
<!-- Relu (op#63) -->
<g id="node64" class="node"><title>Relu (op#63)</title>
<polygon fill="#0f9d58" stroke="#0f9d58" points="8244,-88 8155,-88 8155,-52 8244,-52 8244,-88"/>
<text text-anchor="middle" x="8199.5" y="-66.3" font-family="Times,serif" font-size="14.00" fill="#ffffff">Relu (op#63)</text>
</g>
<!-- SpatialBN (op#62)&#45;&gt;Relu (op#63) -->
<g id="edge71" class="edge"><title>SpatialBN (op#62)&#45;&gt;Relu (op#63)</title>
<path fill="none" stroke="black" d="M8119.02,-70C8127.59,-70 8136.38,-70 8144.84,-70"/>
<polygon fill="black" stroke="black" points="8144.96,-73.5001 8154.96,-70 8144.96,-66.5001 8144.96,-73.5001"/>
</g>
<!-- Conv (op#64) -->
<g id="node65" class="node"><title>Conv (op#64)</title>
<polygon fill="#0f9d58" stroke="#0f9d58" points="8372,-88 8280,-88 8280,-52 8372,-52 8372,-88"/>
<text text-anchor="middle" x="8326" y="-66.3" font-family="Times,serif" font-size="14.00" fill="#ffffff">Conv (op#64)</text>
</g>
<!-- Relu (op#63)&#45;&gt;Conv (op#64) -->
<g id="edge72" class="edge"><title>Relu (op#63)&#45;&gt;Conv (op#64)</title>
<path fill="none" stroke="black" d="M8244.04,-70C8252.22,-70 8260.87,-70 8269.35,-70"/>
<polygon fill="black" stroke="black" points="8269.58,-73.5001 8279.58,-70 8269.58,-66.5001 8269.58,-73.5001"/>
</g>
<!-- Conv (op#64)&#45;&gt;Sum (op#65) -->
<g id="edge74" class="edge"><title>Conv (op#64)&#45;&gt;Sum (op#65)</title>
<path fill="none" stroke="black" d="M8372.3,-61.6314C8380.59,-60.0989 8389.33,-58.4861 8397.84,-56.9137"/>
<polygon fill="black" stroke="black" points="8398.49,-60.352 8407.69,-55.0935 8397.22,-53.4685 8398.49,-60.352"/>
</g>
<!-- SpatialBN (op#66) -->
<g id="node67" class="node"><title>SpatialBN (op#66)</title>
<polygon fill="#0f9d58" stroke="#0f9d58" points="8652,-65 8533,-65 8533,-29 8652,-29 8652,-65"/>
<text text-anchor="middle" x="8592.5" y="-43.3" font-family="Times,serif" font-size="14.00" fill="#ffffff">SpatialBN (op#66)</text>
</g>
<!-- Sum (op#65)&#45;&gt;SpatialBN (op#66) -->
<g id="edge75" class="edge"><title>Sum (op#65)&#45;&gt;SpatialBN (op#66)</title>
<path fill="none" stroke="black" d="M8497.16,-47C8505.34,-47 8514.06,-47 8522.78,-47"/>
<polygon fill="black" stroke="black" points="8522.98,-50.5001 8532.98,-47 8522.98,-43.5001 8522.98,-50.5001"/>
</g>
<!-- Relu (op#67) -->
<g id="node68" class="node"><title>Relu (op#67)</title>
<polygon fill="#0f9d58" stroke="#0f9d58" points="8777,-65 8688,-65 8688,-29 8777,-29 8777,-65"/>
<text text-anchor="middle" x="8732.5" y="-43.3" font-family="Times,serif" font-size="14.00" fill="#ffffff">Relu (op#67)</text>
</g>
<!-- SpatialBN (op#66)&#45;&gt;Relu (op#67) -->
<g id="edge76" class="edge"><title>SpatialBN (op#66)&#45;&gt;Relu (op#67)</title>
<path fill="none" stroke="black" d="M8652.02,-47C8660.59,-47 8669.38,-47 8677.84,-47"/>
<polygon fill="black" stroke="black" points="8677.96,-50.5001 8687.96,-47 8677.96,-43.5001 8677.96,-50.5001"/>
</g>
<!-- AveragePool (op#68) -->
<g id="node69" class="node"><title>AveragePool (op#68)</title>
<polygon fill="#0f9d58" stroke="#0f9d58" points="8947,-65 8813,-65 8813,-29 8947,-29 8947,-65"/>
<text text-anchor="middle" x="8880" y="-43.3" font-family="Times,serif" font-size="14.00" fill="#ffffff">AveragePool (op#68)</text>
</g>
<!-- Relu (op#67)&#45;&gt;AveragePool (op#68) -->
<g id="edge77" class="edge"><title>Relu (op#67)&#45;&gt;AveragePool (op#68)</title>
<path fill="none" stroke="black" d="M8777.15,-47C8785.22,-47 8793.85,-47 8802.55,-47"/>
<polygon fill="black" stroke="black" points="8802.77,-50.5001 8812.77,-47 8802.77,-43.5001 8802.77,-50.5001"/>
</g>
<!-- FC (op#69) -->
<g id="node70" class="node"><title>FC (op#69)</title>
<polygon fill="#0f9d58" stroke="#0f9d58" points="9063,-65 8983,-65 8983,-29 9063,-29 9063,-65"/>
<text text-anchor="middle" x="9023" y="-43.3" font-family="Times,serif" font-size="14.00" fill="#ffffff">FC (op#69)</text>
</g>
<!-- AveragePool (op#68)&#45;&gt;FC (op#69) -->
<g id="edge78" class="edge"><title>AveragePool (op#68)&#45;&gt;FC (op#69)</title>
<path fill="none" stroke="black" d="M8947.37,-47C8955.91,-47 8964.53,-47 8972.72,-47"/>
<polygon fill="black" stroke="black" points="8972.84,-50.5001 8982.84,-47 8972.84,-43.5001 8972.84,-50.5001"/>
</g>
<!-- Softmax (op#70) -->
<g id="node71" class="node"><title>Softmax (op#70)</title>
<polygon fill="#0f9d58" stroke="#0f9d58" points="9209,-65 9099,-65 9099,-29 9209,-29 9209,-65"/>
<text text-anchor="middle" x="9154" y="-43.3" font-family="Times,serif" font-size="14.00" fill="#ffffff">Softmax (op#70)</text>
</g>
<!-- FC (op#69)&#45;&gt;Softmax (op#70) -->
<g id="edge79" class="edge"><title>FC (op#69)&#45;&gt;Softmax (op#70)</title>
<path fill="none" stroke="black" d="M9063.05,-47C9071.16,-47 9079.9,-47 9088.63,-47"/>
<polygon fill="black" stroke="black" points="9088.85,-50.5001 9098.85,-47 9088.85,-43.5001 9088.85,-50.5001"/>
</g>
</g>
</svg>
